<?xml version="1.0" encoding="UTF-8"?>
<svg width="28px" height="28px" viewBox="0 0 28 28" version="1.1" xmlns="http://www.w3.org/2000/svg" xmlns:xlink="http://www.w3.org/1999/xlink">
    <!-- Generator: Sketch 63 (92445) - https://sketch.com -->
    <title>左-切换</title>
    <desc>Created with Sketch.</desc>
    <g id="页面-1" stroke="none" stroke-width="1" fill="none" fill-rule="evenodd">
        <g id="首页" transform="translate(-90.000000, -608.000000)">
            <g id="左-切换" transform="translate(104.000000, 622.000000) scale(1, -1) translate(-104.000000, -622.000000) translate(90.000000, 608.000000)">
                <rect id="矩形备份-17" stroke="#DFDFDF" fill="#F6F6F6" x="0.5" y="0.5" width="27" height="27" rx="4"></rect>
                <g id="51右翻页、右滑" transform="translate(14.000000, 14.000000) scale(-1, 1) translate(-14.000000, -14.000000) translate(3.000000, 3.000000)" fill-rule="nonzero">
                    <rect id="矩形" fill="#000000" opacity="0" x="0" y="0" width="22" height="22"></rect>
                    <path d="M11.8830567,10.9978516 C11.8830567,10.8195312 11.8164062,10.6583984 11.7046875,10.5359375 L11.6574219,10.4886719 L11.1955078,10.0267578 L7.42070312,6.25195312 C7.15429688,5.98554688 6.71601562,5.98554688 6.44746094,6.25195312 C6.18105469,6.51835938 6.18105469,6.95664063 6.44746094,7.22519531 L10.2244141,11 L6.44960937,14.7769531 C6.18320312,15.0433594 6.18320312,15.4816406 6.44960937,15.7501953 C6.71601562,16.0166016 7.15429688,16.0166016 7.42070312,15.7480469 L11.1955078,11.9732422 L11.6638672,11.5048828 L11.7025391,11.4662109 C11.8164062,11.34375 11.8851562,11.1783203 11.8830567,10.9978516 L11.8830567,10.9978516 Z" id="路径" fill="#8D8D8D"></path>
                    <path d="M15.7523927,10.9978516 C15.7523927,10.8195312 15.6857422,10.6583984 15.5740234,10.5359375 L15.5267578,10.4886719 L15.0648438,10.0267578 L11.2900391,6.25195312 C11.0236328,5.98554688 10.5853516,5.98554688 10.3167969,6.25195312 C10.0503906,6.51835938 10.0503906,6.95664063 10.3167969,7.22519531 L14.09375,11 L10.3189453,14.7769531 C10.0525391,15.0433594 10.0525391,15.4816406 10.3189453,15.7501953 C10.5853516,16.0166016 11.0236328,16.0166016 11.2900391,15.7480469 L15.0648438,11.9732422 L15.5332031,11.5048828 L15.571875,11.4662109 C15.6857422,11.34375 15.7544922,11.1783203 15.7523927,10.9978516 L15.7523927,10.9978516 Z" id="路径" fill="#8D8D8D"></path>
                </g>
            </g>
        </g>
    </g>
</svg>